
[code]
Age Of Heroes 2011 DVDRiP XViD AC3 - IMAGiNE


Ripper ...........: IMAGiNE                                      IMDB Rating.......: 7.3/10                             
Video Codec.......: XVID                                         Release Date......: 13/06/11
Audio Codec.......: AC3                                          Theatre Date......: 21/05/11
Audio Bitrate.....: 448                                          Runtime.......: 1h 29mn
Subtitles.........: NIL                                          Language..........: ENGLISH
Resolution......: 720 x 304                                      IMDb URL..........: http://www.imdb.com/title/tt1590950/

DETAILS:

Video
ID                               : 0
Format                           : MPEG-4 Visual
Format profile                   : Advanced Simple@L5
Format settings, BVOP            : 2
Format settings, QPel            : No
Format settings, GMC             : No warppoint
Format settings, Matrix          : Default (MPEG)
Muxing mode                      : Packed bitstream
Codec ID                         : XVID
Codec ID/Hint                    : XviD
Duration                         : 1h 29mn
Bit rate                         : 2 066 Kbps
Width                            : 720 pixels
Height                           : 304 pixels
Display aspect ratio             : 2.35:1
Frame rate                       : 25.000 fps
Color space                      : YUV
Chroma subsampling               : 4:2:0
Bit depth                        : 8 bits
Scan type                        : Progressive
Compression mode                 : Lossy
Bits/(Pixel*Frame)               : 0.378
Stream size                      : 1.30 GiB (82%)
Writing library                  : XviD 61
Audio

ID                               : 1
Format                           : AC-3
Format/Info                      : Audio Coding 3
Mode extension                   : CM (complete main)
Codec ID                         : 2000
Duration                         : 1h 29mn
Bit rate mode                    : Constant
Bit rate                         : 448 Kbp
Channel(s)                       : 6 channels
Channel positions                : Front: L C R, Side: L R, LFE
Sampling rate                    : 48.0 KHz
Bit depth                        : 16 bits
Compression mode                 : Lossy
Stream size                      : 288 MiB (18%)
Alignment                        : Aligned on interleaves
Interleave, duration             : 40 ms (1.00 video frame)

Plot:
The true story of the formation of Ian Fleming's 30 Commando unit, a precursor for the elite forces in the U.K.

SOURCES:
TheKin2 .............. Thanx Mate 

NOTES:
IMAGiNE bringing you another release..........
Age Of Heroes......
Well here we ae with a dvdrip of Age Of Heroes........
Source was very nice, thanx to thekin2 for the files Made a script to crop and resize, then sharpened it up abit Audio was then remuxed to our encode 
Enjoy Folks!
[/code]
Screens: